<svg xmlns="http://www.w3.org/2000/svg" viewBox="0 0 512 512" width="512" height="512" role="img" aria-label="Astraeval icon">
  <title>Astraeval</title>
  <defs>
    <linearGradient id="bg" x1="0" y1="0" x2="0" y2="1">
      <stop offset="0%" stop-color="#1A2A5C"/>
      <stop offset="100%" stop-color="#0B1336"/>
    </linearGradient>
    <radialGradient id="glow">
      <stop offset="0%" stop-color="#FFF0B8" stop-opacity="1"/>
      <stop offset="40%" stop-color="#F4C95D" stop-opacity="0.5"/>
      <stop offset="100%" stop-color="#F4C95D" stop-opacity="0"/>
    </radialGradient>
    <g id="star">
      <circle r="14" fill="url(#glow)"/>
      <path d="M0,-7 L1.8,-1.8 L7,0 L1.8,1.8 L0,7 L-1.8,1.8 L-7,0 L-1.8,-1.8 Z" fill="#FFE5A0"/>
      <circle r="1.8" fill="#FFFFFF"/>
    </g>
  </defs>

  <rect width="512" height="512" rx="96" fill="url(#bg)"/>

  <g stroke="#F4C95D" fill="none" stroke-linecap="round" stroke-linejoin="round">
    <circle cx="256" cy="116" r="9" stroke-width="2.5"/>
    <line x1="256" y1="125" x2="256" y2="172" stroke-width="2"/>

    <polyline points="80,176 134,162 188,170 228,158 256,170 284,158 324,170 378,162 432,176" stroke-width="2"/>

    <line x1="120" y1="174" x2="142" y2="282" stroke-width="1.5"/>
    <line x1="178" y1="170" x2="178" y2="282" stroke-width="1.5"/>
    <line x1="334" y1="170" x2="334" y2="282" stroke-width="1.5"/>
    <line x1="392" y1="174" x2="370" y2="282" stroke-width="1.5"/>

    <line x1="128" y1="282" x2="192" y2="282" stroke-width="2"/>
    <path d="M 128 282 Q 160 326 192 282" stroke-width="2"/>

    <line x1="320" y1="282" x2="384" y2="282" stroke-width="2"/>
    <path d="M 320 282 Q 352 326 384 282" stroke-width="2"/>

    <line x1="256" y1="170" x2="208" y2="404" stroke-width="2.5"/>
    <line x1="256" y1="170" x2="304" y2="404" stroke-width="2.5"/>
    <line x1="231" y1="296" x2="281" y2="296" stroke-width="2"/>
  </g>

  <use href="#star" transform="translate(80 176) scale(0.85)"/>
  <use href="#star" transform="translate(134 162) scale(1.15)"/>
  <use href="#star" transform="translate(188 170) scale(0.7)"/>
  <use href="#star" transform="translate(228 158) scale(1)"/>
  <use href="#star" transform="translate(256 170) scale(1.3)"/>
  <use href="#star" transform="translate(284 158) scale(1)"/>
  <use href="#star" transform="translate(324 170) scale(0.7)"/>
  <use href="#star" transform="translate(378 162) scale(1.15)"/>
  <use href="#star" transform="translate(432 176) scale(0.85)"/>

  <use href="#star" transform="translate(160 304) scale(0.7)"/>
  <use href="#star" transform="translate(352 304) scale(0.7)"/>

  <use href="#star" transform="translate(208 404) scale(1)"/>
  <use href="#star" transform="translate(304 404) scale(1)"/>

  <use href="#star" transform="translate(256 296) scale(0.85)"/>
  <use href="#star" transform="translate(256 116) scale(0.65)"/>
</svg>
